<svg xmlns="http://www.w3.org/2000/svg" viewBox="0 0 1400 788"><rect width="1400" height="788" fill="#F8FAFC"/><style>.t{font:700 37px Georgia;fill:#173A63}.s{font:600 14px Arial;fill:#60717D;letter-spacing:3px}.h{font:700 15px Arial;fill:#173A63}.b{font:13px Arial;fill:#263846}.sm{font:12px Arial;fill:#60717D}.c{fill:#fff;stroke:#CBD6E0;stroke-width:1.35}.a{fill:#5C6FA3}.n{fill:#EDF0F8;stroke:#5C6FA3;stroke-width:1.2}.ar{stroke:#5C6FA3;stroke-width:2.3;fill:none;marker-end:url(#x)}</style><defs><marker id="x" viewBox="0 0 10 10" refX="8" refY="5" markerWidth="7" markerHeight="7" orient="auto"><path d="M0 0 L10 5 L0 10 z" fill="#5C6FA3"/></marker></defs><text x="700" y="48" text-anchor="middle" class="t">Competency Gap Intelligence</text><text x="700" y="80" text-anchor="middle" class="s">DATA PROCESSING + DECISION WORKFLOW</text><rect x="28" y="138" width="200" height="385" rx="10" class="c"/><circle cx="58" cy="170" r="18" class="a"/><text x="58" y="176" text-anchor="middle" fill="#fff" font-family="Arial" font-weight="700">1</text><text x="48" y="214" class="h"><tspan x="48">REQUIREMENTS</tspan></text><text x="48" y="282" class="b"><tspan x="48">Target level</tspan><tspan x="48" dy="21">Importance</tspan><tspan x="48" dy="21">Role competency</tspan></text><path d="M228 330 H246" class="ar"/><rect x="252" y="138" width="200" height="385" rx="10" class="c"/><circle cx="282" cy="170" r="18" class="a"/><text x="282" y="176" text-anchor="middle" fill="#fff" font-family="Arial" font-weight="700">2</text><text x="272" y="214" class="h"><tspan x="272">EVIDENCE</tspan></text><text x="272" y="282" class="b"><tspan x="272">Dated records</tspan><tspan x="272" dy="21">Level</tspan><tspan x="272" dy="21">Confidence</tspan><tspan x="272" dy="21">Provenance</tspan></text><path d="M452 330 H470" class="ar"/><rect x="476" y="138" width="200" height="385" rx="10" class="c"/><circle cx="506" cy="170" r="18" class="a"/><text x="506" y="176" text-anchor="middle" fill="#fff" font-family="Arial" font-weight="700">3</text><text x="496" y="214" class="h"><tspan x="496">AGGREGATE</tspan></text><text x="496" y="282" class="b"><tspan x="496">Confidence-weight</tspan><tspan x="496" dy="21">Observed level</tspan><tspan x="496" dy="21">Missing/stale status</tspan></text><path d="M676 330 H694" class="ar"/><rect x="700" y="138" width="200" height="385" rx="10" class="c"/><circle cx="730" cy="170" r="18" class="a"/><text x="730" y="176" text-anchor="middle" fill="#fff" font-family="Arial" font-weight="700">4</text><text x="720" y="214" class="h"><tspan x="720">GAP</tspan></text><text x="720" y="282" class="b"><tspan x="720">Target − observed</tspan><tspan x="720" dy="21">Positive gap only</tspan><tspan x="720" dy="21">Priority score</tspan></text><path d="M900 330 H918" class="ar"/><rect x="924" y="138" width="200" height="385" rx="10" class="c"/><circle cx="954" cy="170" r="18" class="a"/><text x="954" y="176" text-anchor="middle" fill="#fff" font-family="Arial" font-weight="700">5</text><text x="944" y="214" class="h"><tspan x="944">PREREQUISITES</tspan></text><text x="944" y="282" class="b"><tspan x="944">Blockers</tspan><tspan x="944" dy="21">Development order</tspan><tspan x="944" dy="21">Dependencies</tspan></text><path d="M1124 330 H1142" class="ar"/><rect x="1148" y="138" width="200" height="385" rx="10" class="c"/><circle cx="1178" cy="170" r="18" class="a"/><text x="1178" y="176" text-anchor="middle" fill="#fff" font-family="Arial" font-weight="700">6</text><text x="1168" y="214" class="h"><tspan x="1168">SENSITIVITY</tspan></text><text x="1168" y="282" class="b"><tspan x="1168">Change importance</tspan><tspan x="1168" dy="21">Check rank stability</tspan><tspan x="1168" dy="21">Resource match</tspan></text><rect x="28" y="560" width="1344" height="122" rx="10" class="n"/><text x="50" y="598" class="h">KEY RULE / CALCULATION</text><text x="50" y="630" class="b"><tspan x="50">Observed level = Σ(confidence × level) / Σ confidence;</tspan><tspan x="50" dy="21">priority = positive gap × declared importance.</tspan></text><text x="28" y="736" class="sm">The pipeline distinguishes 'no evidence' from 'evidence of a gap' and keeps prerequisite blockers visible.</text></svg>